<svg width="225" height="281" viewBox="0 0 225 281" fill="none" xmlns="http://www.w3.org/2000/svg">
<g clip-path="url(#clip0_135_4057)">
<path d="M48.8137 114.79L19.3819 166.297C18.6655 167.573 18.362 169.04 18.5129 170.495C18.6638 171.95 19.2617 173.323 20.2248 174.426C21.1699 175.527 22.439 176.302 23.8515 176.642C25.2639 176.982 26.7479 176.868 28.092 176.318L61.7384 162.933L67.3579 198.603C67.5838 200.034 68.2545 201.359 69.2753 202.39C70.2961 203.421 71.6155 204.106 73.0475 204.349C73.4644 204.43 73.8873 204.477 74.3119 204.489C75.5578 204.493 76.7818 204.163 77.8566 203.535C78.9314 202.906 79.8176 202.002 80.4231 200.915L108.239 152.071C95.9284 151.596 83.9588 147.901 73.5294 141.358C63.1 134.815 54.5768 125.653 48.8137 114.79Z" fill="#F3D54E"/>
<path d="M111.997 19.8432C95.2382 19.8682 79.1728 26.5211 67.3224 38.3436C55.472 50.1661 48.8034 66.1937 48.7784 82.9132C48.7698 91.6251 50.5882 100.242 54.1168 108.211C58.9837 119.25 66.9122 128.671 76.968 135.363C87.0239 142.055 98.7878 145.74 110.873 145.983H113.332C129.981 145.633 145.82 138.744 157.408 126.811C168.996 114.879 175.397 98.8676 175.221 82.2544C175.045 65.6413 168.307 49.7682 156.469 38.0826C144.631 26.397 128.65 19.8427 111.997 19.8432ZM145.573 73.2425L117.476 108.281C116.869 109.056 116.105 109.694 115.233 110.153C114.361 110.612 113.402 110.882 112.419 110.944H111.997C110.131 110.95 108.338 110.219 107.01 108.912L85.9369 87.8887C84.6231 86.5673 83.8877 84.7804 83.8915 82.9192C83.8953 81.0579 84.6381 79.274 85.9572 77.958C87.2764 76.6419 89.0645 75.9008 90.9301 75.897C92.7958 75.8932 94.5869 76.627 95.9114 77.9377L111.435 93.4249L134.615 64.5528C135.773 63.1107 137.456 62.185 139.296 61.9786C141.137 61.7721 142.984 62.3017 144.434 63.4513C145.883 64.6009 146.817 66.2768 147.031 68.112C147.244 69.9472 146.72 71.792 145.573 73.2425Z" fill="#6EBE4A"/>
<path d="M203.139 165.316L173.215 114.439C167.493 125.35 158.998 134.569 148.581 141.173C138.164 147.778 126.191 151.536 113.86 152.071L142.589 200.845C143.206 201.896 144.088 202.767 145.149 203.369C146.209 203.972 147.41 204.286 148.63 204.279C149.078 204.267 149.524 204.22 149.965 204.139C151.399 203.863 152.712 203.148 153.719 202.093C154.726 201.038 155.378 199.695 155.584 198.252L160.782 162.583L194.569 175.407C195.929 175.936 197.421 176.029 198.837 175.671C200.252 175.314 201.52 174.524 202.464 173.413C203.408 172.301 203.98 170.924 204.101 169.472C204.222 168.02 203.886 166.567 203.139 165.316Z" fill="#F3D54E"/>
</g>
<defs>
<clipPath id="clip0_135_4057">
<rect width="224.778" height="280.311" fill="white" transform="translate(0 0.466675)"/>
</clipPath>
</defs>
</svg>
