<svg width="128" height="127" viewBox="0 0 128 127" fill="none" xmlns="http://www.w3.org/2000/svg">
<path d="M63.9971 0.843018C47.2382 0.868041 31.1728 7.52093 19.3224 19.3434C7.47201 31.1659 0.803433 47.1935 0.77835 63.913C0.769779 72.6249 2.58822 81.2422 6.11682 89.2111C10.9837 100.25 18.9122 109.671 28.968 116.363C39.0239 123.055 50.7878 126.74 62.8732 126.983H65.3317C81.9813 126.633 97.82 119.743 109.408 107.811C120.996 95.8789 127.397 79.8674 127.221 63.2542C127.045 46.6411 120.307 30.768 108.469 19.0824C96.6313 7.39685 80.6504 0.842531 63.9971 0.843018ZM97.5733 54.2423L69.4761 89.2812C68.8691 90.0559 68.1047 90.6937 67.233 91.1527C66.3613 91.6116 65.4022 91.8814 64.4186 91.9441H63.9971C62.1311 91.9496 60.3385 91.2191 59.0098 89.9119L37.9369 68.8885C36.6231 67.5671 35.8877 65.7802 35.8915 63.919C35.8953 62.0578 36.6381 60.2738 37.9572 58.9578C39.2764 57.6417 41.0645 56.9006 42.9301 56.8968C44.7958 56.893 46.5869 57.6268 47.9114 58.9375L63.4352 74.4247L86.6154 45.5526C87.7729 44.1105 89.4562 43.1849 91.2964 42.9784C93.1367 42.7719 94.984 43.3015 96.4337 44.4511C97.8834 45.6007 98.8173 47.2767 99.0309 49.1118C99.2445 50.947 98.7204 52.7919 97.5733 54.2423Z" fill="#026937"/>
</svg>
